<svg width="30" height="27" viewBox="0 0 30 27" fill="none" xmlns="http://www.w3.org/2000/svg">
<path d="M20.049 0.156982L24.8655 8.49998H30V11.5H28.2495L27.114 25.1245C27.0828 25.4993 26.9119 25.8487 26.6352 26.1035C26.3585 26.3583 25.9961 26.4998 25.62 26.5H4.38C4.00387 26.4998 3.64154 26.3583 3.36483 26.1035C3.08812 25.8487 2.91722 25.4993 2.886 25.1245L1.749 11.5H0V8.49998H5.133L9.951 0.156982L12.549 1.65698L8.598 8.49998H21.4005L17.451 1.65698L20.049 0.156982ZM25.239 11.5H4.7595L5.76 23.5H24.2385L25.239 11.5ZM16.5 14.5V20.5H13.5V14.5H16.5ZM10.5 14.5V20.5H7.5V14.5H10.5ZM22.5 14.5V20.5H19.5V14.5H22.5Z" fill="#F8F8F8"/>
</svg>
