<svg width="101" height="41" viewBox="0 0 101 41" fill="none" xmlns="http://www.w3.org/2000/svg">
<path d="M0 5C0 2.23858 2.23858 0 5 0H96C98.7614 0 101 2.23858 101 5V36C101 38.7614 98.7614 41 96 41H5C2.23857 41 0 38.7614 0 36V5Z" fill="#282A33"/>
<path d="M18.494 27V15.228H22.256C22.868 15.228 23.426 15.282 23.93 15.39C24.446 15.486 24.89 15.648 25.262 15.876C25.646 16.092 25.94 16.386 26.144 16.758C26.36 17.13 26.468 17.586 26.468 18.126C26.468 18.69 26.324 19.212 26.036 19.692C25.748 20.172 25.346 20.502 24.83 20.682V20.754C25.478 20.898 26.012 21.204 26.432 21.672C26.864 22.128 27.08 22.752 27.08 23.544C27.08 24.132 26.966 24.642 26.738 25.074C26.51 25.506 26.192 25.866 25.784 26.154C25.388 26.442 24.914 26.658 24.362 26.802C23.81 26.934 23.21 27 22.562 27H18.494ZM20.582 20.088H22.076C22.904 20.088 23.498 19.938 23.858 19.638C24.23 19.338 24.416 18.936 24.416 18.432C24.416 17.856 24.224 17.448 23.84 17.208C23.456 16.968 22.88 16.848 22.112 16.848H20.582V20.088ZM20.582 25.38H22.346C23.21 25.38 23.876 25.224 24.344 24.912C24.812 24.588 25.046 24.096 25.046 23.436C25.046 22.812 24.818 22.362 24.362 22.086C23.906 21.798 23.234 21.654 22.346 21.654H20.582V25.38ZM32.6578 27V18.162H34.7278V21.6H36.0238L36.8518 19.818C37.0198 19.434 37.1938 19.122 37.3738 18.882C37.5658 18.642 37.7638 18.456 37.9678 18.324C38.1718 18.18 38.3938 18.084 38.6338 18.036C38.8738 17.976 39.1318 17.946 39.4078 17.946C39.6478 17.946 39.8578 17.982 40.0378 18.054L39.6958 19.98C39.5878 19.944 39.4798 19.926 39.3718 19.926C39.1558 19.926 38.9518 19.992 38.7598 20.124C38.5678 20.244 38.3758 20.526 38.1838 20.97L37.5718 22.338L40.5778 27H38.2918L36.0598 23.256H34.7278V27H32.6578ZM45.2758 27.216C44.7238 27.216 44.1958 27.114 43.6918 26.91C43.1878 26.706 42.7378 26.406 42.3418 26.01C41.9578 25.614 41.6518 25.128 41.4238 24.552C41.1958 23.976 41.0818 23.322 41.0818 22.59C41.0818 21.858 41.1958 21.204 41.4238 20.628C41.6518 20.052 41.9578 19.566 42.3418 19.17C42.7378 18.774 43.1878 18.474 43.6918 18.27C44.1958 18.054 44.7238 17.946 45.2758 17.946C45.8278 17.946 46.3558 18.054 46.8598 18.27C47.3758 18.474 47.8258 18.774 48.2098 19.17C48.5938 19.566 48.8998 20.052 49.1278 20.628C49.3678 21.204 49.4878 21.858 49.4878 22.59C49.4878 23.322 49.3678 23.976 49.1278 24.552C48.8998 25.128 48.5938 25.614 48.2098 26.01C47.8258 26.406 47.3758 26.706 46.8598 26.91C46.3558 27.114 45.8278 27.216 45.2758 27.216ZM45.2758 25.524C45.9238 25.524 46.4338 25.26 46.8058 24.732C47.1778 24.192 47.3638 23.478 47.3638 22.59C47.3638 21.69 47.1778 20.976 46.8058 20.448C46.4338 19.908 45.9238 19.638 45.2758 19.638C44.6278 19.638 44.1178 19.908 43.7458 20.448C43.3858 20.976 43.2058 21.69 43.2058 22.59C43.2058 23.478 43.3858 24.192 43.7458 24.732C44.1178 25.26 44.6278 25.524 45.2758 25.524ZM51.5367 27V18.162H53.5887V25.344H56.2167V18.162H58.2147V25.344H60.8427V18.162H62.8947V27H51.5367ZM65.5288 27V18.162H67.5448V21.204C67.5448 21.66 67.5208 22.17 67.4728 22.734C67.4368 23.286 67.4008 23.844 67.3648 24.408H67.4188C67.5748 24.132 67.7608 23.82 67.9768 23.472C68.1928 23.112 68.3728 22.8 68.5168 22.536L71.3248 18.162H73.2328V27H71.2168V23.958C71.2168 23.502 71.2348 22.998 71.2708 22.446C71.3188 21.882 71.3668 21.318 71.4148 20.754H71.3428C71.1868 21.03 71.0008 21.348 70.7848 21.708C70.5808 22.056 70.4008 22.362 70.2448 22.626L67.4368 27H65.5288ZM75.8648 27V18.162H77.9348V21.6H79.2308L80.0588 19.818C80.2268 19.434 80.4008 19.122 80.5808 18.882C80.7728 18.642 80.9708 18.456 81.1748 18.324C81.3788 18.18 81.6008 18.084 81.8408 18.036C82.0808 17.976 82.3388 17.946 82.6148 17.946C82.8548 17.946 83.0648 17.982 83.2448 18.054L82.9028 19.98C82.7948 19.944 82.6868 19.926 82.5788 19.926C82.3628 19.926 82.1588 19.992 81.9668 20.124C81.7748 20.244 81.5828 20.526 81.3908 20.97L80.7788 22.338L83.7848 27H81.4988L79.2668 23.256H77.9348V27H75.8648Z" fill="#F8F8F8"/>
</svg>
