<svg width="368" height="43" viewBox="0 0 368 43" fill="none" xmlns="http://www.w3.org/2000/svg">
<rect width="368" height="43" rx="5" fill="#63AC06"/>
<path d="M151.192 28.216C150.448 28.216 149.752 28.084 149.104 27.82C148.456 27.556 147.892 27.166 147.412 26.65C146.944 26.134 146.572 25.498 146.296 24.742C146.02 23.986 145.882 23.122 145.882 22.15C145.882 21.19 146.02 20.332 146.296 19.576C146.584 18.808 146.968 18.16 147.448 17.632C147.94 17.104 148.51 16.702 149.158 16.426C149.818 16.15 150.52 16.012 151.264 16.012C152.008 16.012 152.668 16.162 153.244 16.462C153.82 16.762 154.294 17.11 154.666 17.506L153.55 18.856C153.238 18.544 152.902 18.298 152.542 18.118C152.182 17.926 151.774 17.83 151.318 17.83C150.838 17.83 150.394 17.932 149.986 18.136C149.59 18.328 149.242 18.61 148.942 18.982C148.654 19.342 148.426 19.786 148.258 20.314C148.102 20.842 148.024 21.436 148.024 22.096C148.024 23.44 148.312 24.496 148.888 25.264C149.476 26.02 150.268 26.398 151.264 26.398C151.792 26.398 152.26 26.29 152.668 26.074C153.076 25.846 153.448 25.552 153.784 25.192L154.9 26.506C154.42 27.058 153.868 27.484 153.244 27.784C152.632 28.072 151.948 28.216 151.192 28.216ZM156.685 28V19.162H164.191V28H162.121V20.8H158.755V28H156.685ZM166.611 28.216C166.263 28.216 165.951 28.156 165.675 28.036L166.035 26.164C166.095 26.188 166.155 26.206 166.215 26.218C166.287 26.23 166.371 26.236 166.467 26.236C166.743 26.236 166.971 26.116 167.151 25.876C167.331 25.624 167.457 25.216 167.529 24.652C167.649 23.728 167.757 22.816 167.853 21.916C167.961 21.004 168.063 20.086 168.159 19.162H174.153V28H172.083V20.8H169.815C169.719 21.532 169.629 22.27 169.545 23.014C169.461 23.746 169.371 24.478 169.275 25.21C169.143 26.194 168.855 26.944 168.411 27.46C167.967 27.964 167.367 28.216 166.611 28.216ZM178.919 28.216C178.139 28.216 177.509 27.982 177.029 27.514C176.549 27.034 176.309 26.404 176.309 25.624C176.309 25.156 176.405 24.742 176.597 24.382C176.801 24.01 177.113 23.692 177.533 23.428C177.965 23.164 178.505 22.942 179.153 22.762C179.813 22.582 180.599 22.444 181.511 22.348C181.499 22.12 181.463 21.904 181.403 21.7C181.355 21.484 181.265 21.298 181.133 21.142C181.013 20.974 180.851 20.848 180.647 20.764C180.443 20.668 180.191 20.62 179.891 20.62C179.459 20.62 179.033 20.704 178.613 20.872C178.205 21.04 177.803 21.244 177.407 21.484L176.651 20.098C177.143 19.786 177.695 19.516 178.307 19.288C178.919 19.06 179.579 18.946 180.287 18.946C181.391 18.946 182.213 19.276 182.753 19.936C183.305 20.584 183.581 21.526 183.581 22.762V28H181.871L181.727 27.028H181.655C181.259 27.364 180.833 27.646 180.377 27.874C179.933 28.102 179.447 28.216 178.919 28.216ZM179.585 26.596C179.945 26.596 180.269 26.512 180.557 26.344C180.857 26.176 181.175 25.936 181.511 25.624V23.644C180.911 23.716 180.407 23.812 179.999 23.932C179.591 24.052 179.261 24.19 179.009 24.346C178.757 24.49 178.577 24.658 178.469 24.85C178.361 25.042 178.307 25.246 178.307 25.462C178.307 25.858 178.427 26.146 178.667 26.326C178.907 26.506 179.213 26.596 179.585 26.596ZM187.703 28V20.8H184.931V19.162H192.563V20.8H189.791V28H187.703ZM194.337 28V19.162H196.353V22.204C196.353 22.66 196.329 23.17 196.281 23.734C196.245 24.286 196.209 24.844 196.173 25.408H196.227C196.383 25.132 196.569 24.82 196.785 24.472C197.001 24.112 197.181 23.8 197.325 23.536L200.133 19.162H202.041V28H200.025V24.958C200.025 24.502 200.043 23.998 200.079 23.446C200.127 22.882 200.175 22.318 200.223 21.754H200.151C199.995 22.03 199.809 22.348 199.593 22.708C199.389 23.056 199.209 23.362 199.053 23.626L196.245 28H194.337ZM206.599 28V20.8H203.827V19.162H211.459V20.8H208.687V28H206.599ZM213.234 28V19.162H215.25V22.204C215.25 22.66 215.226 23.17 215.178 23.734C215.142 24.286 215.106 24.844 215.07 25.408H215.124C215.28 25.132 215.466 24.82 215.682 24.472C215.898 24.112 216.078 23.8 216.222 23.536L219.03 19.162H220.938V28H218.922V24.958C218.922 24.502 218.94 23.998 218.976 23.446C219.024 22.882 219.072 22.318 219.12 21.754H219.048C218.892 22.03 218.706 22.348 218.49 22.708C218.286 23.056 218.106 23.362 217.95 23.626L215.142 28H213.234Z" fill="#F8F8F8"/>
</svg>
