<svg width="93" height="41" viewBox="0 0 93 41" fill="none" xmlns="http://www.w3.org/2000/svg">
<path d="M0 5C0 2.23858 2.23858 0 5 0H88C90.7614 0 93 2.23858 93 5V36C93 38.7614 90.7614 41 88 41H5C2.23858 41 0 38.7614 0 36V5Z" fill="#63AC06"/>
<path d="M18.494 27V15.228H20.582V20.016H22.256L23.84 17.172C24.068 16.752 24.29 16.404 24.506 16.128C24.734 15.84 24.956 15.618 25.172 15.462C25.4 15.294 25.64 15.18 25.892 15.12C26.144 15.048 26.42 15.012 26.72 15.012C26.852 15.012 26.99 15.024 27.134 15.048C27.29 15.06 27.422 15.096 27.53 15.156L27.188 17.064C27.092 17.028 27.002 17.01 26.918 17.01C26.846 16.998 26.78 16.992 26.72 16.992C26.588 16.992 26.462 17.01 26.342 17.046C26.234 17.082 26.126 17.148 26.018 17.244C25.91 17.328 25.796 17.454 25.676 17.622C25.556 17.778 25.424 17.988 25.28 18.252L23.894 20.718L27.818 27H25.604L22.238 21.708H20.582V27H18.494ZM29.3143 30.636C29.0743 30.636 28.8643 30.618 28.6843 30.582C28.5043 30.558 28.3303 30.516 28.1623 30.456L28.5403 28.836C28.6243 28.86 28.7203 28.884 28.8283 28.908C28.9483 28.944 29.0623 28.962 29.1703 28.962C29.6383 28.962 30.0103 28.818 30.2863 28.53C30.5743 28.254 30.7903 27.894 30.9343 27.45L31.0963 26.892L27.6223 18.162H29.7283L31.2583 22.5C31.3903 22.884 31.5163 23.292 31.6363 23.724C31.7683 24.144 31.9003 24.564 32.0322 24.984H32.1043C32.2123 24.576 32.3203 24.162 32.4283 23.742C32.5483 23.31 32.6623 22.896 32.7703 22.5L34.1023 18.162H36.1003L32.8963 27.396C32.7163 27.9 32.5183 28.35 32.3023 28.746C32.0863 29.142 31.8343 29.478 31.5463 29.754C31.2703 30.042 30.9463 30.258 30.5743 30.402C30.2143 30.558 29.7943 30.636 29.3143 30.636ZM37.6324 27V18.162H45.1384V27H43.0684V19.8H39.7024V27H37.6324ZM47.7925 27V18.162H49.8085V21.204C49.8085 21.66 49.7845 22.17 49.7365 22.734C49.7005 23.286 49.6645 23.844 49.6285 24.408H49.6825C49.8385 24.132 50.0245 23.82 50.2405 23.472C50.4565 23.112 50.6365 22.8 50.7805 22.536L53.5885 18.162H55.4965V27H53.4805V23.958C53.4805 23.502 53.4985 22.998 53.5345 22.446C53.5825 21.882 53.6305 21.318 53.6785 20.754H53.6065C53.4505 21.03 53.2645 21.348 53.0485 21.708C52.8445 22.056 52.6645 22.362 52.5085 22.626L49.7005 27H47.7925ZM60.0545 27V19.8H57.2825V18.162H64.9145V19.8H62.1425V27H60.0545ZM66.689 27V18.162H68.705V21.204C68.705 21.66 68.681 22.17 68.633 22.734C68.597 23.286 68.561 23.844 68.525 24.408H68.579C68.735 24.132 68.921 23.82 69.137 23.472C69.353 23.112 69.533 22.8 69.677 22.536L72.485 18.162H74.393V27H72.377V23.958C72.377 23.502 72.395 22.998 72.431 22.446C72.479 21.882 72.527 21.318 72.575 20.754H72.503C72.347 21.03 72.161 21.348 71.945 21.708C71.741 22.056 71.561 22.362 71.405 22.626L68.597 27H66.689Z" fill="#F8F8F8"/>
</svg>
