<svg width="145" height="145" viewBox="0 0 145 145" fill="none" xmlns="http://www.w3.org/2000/svg">
<path d="M28.8682 18.9599L10.8311 24.8038L17.1144 44.247C21.1129 30.8016 25.9023 22.9144 28.8682 18.9599ZM66.2386 2.19702H56.4621C47.8061 2.19702 40.3583 7.25005 36.8432 14.544H85.8576C82.3204 7.25005 74.8727 2.19702 66.2386 2.19702Z" fill="#F8F8F8"/>
<path d="M105.125 29.2417C103.345 28.978 101.566 28.9121 99.8083 29C101.105 31.6144 102.357 34.3606 103.543 37.2606C103.983 38.381 103.455 39.6553 102.313 40.1167C102.137 40.1826 101.939 40.2485 101.742 40.2704C100.797 40.3803 99.8303 39.831 99.4568 38.9083C98.1386 35.6129 96.7106 32.5151 95.1947 29.6151H95.1727C94.7553 28.7803 94.3378 28.0114 93.9204 27.2864C93.8545 27.1326 93.7666 26.9788 93.7007 26.847C90.4931 21.2007 88.0325 18.9379 88.0325 18.9379H34.6242C34.6242 18.9379 9.77647 41.8303 14.9613 124.392H49.7174C50.9257 124.392 51.9143 125.381 51.9143 126.589C51.9143 127.798 50.9257 128.786 49.7174 128.786H15.2469C11.3803 132.653 11.3803 138.936 15.2469 142.803H107.388C111.255 138.936 111.255 132.653 107.388 128.786C110.222 90.6909 106.773 64.8106 102.027 47.806C104.664 47.1909 107.212 47.2568 109.541 48.1136C120.899 52.3318 123.777 74.0379 115.824 95.5242C115.253 97.0401 114.638 98.5561 114.001 100.006C112.924 102.401 113.408 105.147 115.187 107.014C116.549 108.42 118.439 109.123 120.372 108.948C120.416 108.948 120.438 108.948 120.482 108.926C122.437 108.728 124.129 107.652 125.161 105.982C129.358 99.1273 132.236 90.9765 133.488 82.4303C133.949 79.2447 134.169 76.0811 134.169 72.9833C134.169 50.5083 122.261 31.7462 105.125 29.2417ZM71.4454 97.6333C71.4454 103.192 66.8977 107.739 61.3393 107.739C55.781 107.739 51.2333 103.192 51.2333 97.6333V95.7439H58.7689C59.9772 95.7439 60.9659 94.7553 60.9659 93.547C60.9659 92.3386 59.9772 91.35 58.7689 91.35H51.2333V85.9015H58.7689C59.9772 85.9015 60.9659 84.9129 60.9659 83.7045C60.9659 82.4962 59.9772 81.5076 58.7689 81.5076H51.2333V76.0591H58.7689C59.9772 76.0591 60.9659 75.0704 60.9659 73.8621C60.9659 72.6538 59.9772 71.6651 58.7689 71.6651H51.2333V66.2167H58.7689C59.9772 66.2167 60.9659 65.228 60.9659 64.0197C60.9659 62.8114 59.9772 61.8227 58.7689 61.8227H51.2333V56.3742H58.7689C59.9772 56.3742 60.9659 55.3856 60.9659 54.1773C60.9659 52.9689 59.9772 51.9803 58.7689 51.9803H51.2333V50.0909C51.2333 44.5326 55.781 39.9848 61.3393 39.9848C66.8977 39.9848 71.4454 44.5326 71.4454 50.0909V97.6333Z" fill="#F8F8F8"/>
</svg>
