<svg width="165" height="165" viewBox="0 0 165 165" fill="none" xmlns="http://www.w3.org/2000/svg">
<path d="M139.219 97.9688H25.7812V27.5344C25.7813 24.3344 27.0524 21.2654 29.3152 19.0027C31.5779 16.7399 34.6469 15.4688 37.8469 15.4688H127.153C130.353 15.4688 133.422 16.7399 135.685 19.0027C137.948 21.2654 139.219 24.3344 139.219 27.5344V97.9688ZM36.0938 87.6562H128.906V27.5344C128.906 27.0694 128.722 26.6235 128.393 26.2947C128.064 25.966 127.618 25.7812 127.153 25.7812H37.8469C37.3819 25.7812 36.936 25.966 36.6072 26.2947C36.2785 26.6235 36.0938 27.0694 36.0938 27.5344V87.6562Z" fill="#F8F8F8"/>
<path d="M144.376 149.531H20.6255C18.6543 149.529 16.7136 149.044 14.9731 148.119C13.2325 147.194 11.7453 145.856 10.6413 144.223C9.5373 142.59 8.85025 140.711 8.64022 138.751C8.43019 136.791 8.70357 134.81 9.43646 132.98L27.4318 87.6562H137.569L155.719 132.98C156.457 134.822 156.729 136.817 156.512 138.79C156.294 140.762 155.593 142.651 154.471 144.288C153.35 145.924 151.841 147.259 150.08 148.174C148.319 149.089 146.36 149.555 144.376 149.531ZM34.4443 97.9687L18.9755 136.795C18.8643 137.064 18.8216 137.356 18.8514 137.645C18.8812 137.935 18.9825 138.212 19.1462 138.453C19.3099 138.693 19.5308 138.889 19.789 139.023C20.0473 139.156 20.3347 139.224 20.6255 139.219H144.376C144.666 139.224 144.954 139.156 145.212 139.023C145.47 138.889 145.691 138.693 145.855 138.453C146.019 138.212 146.12 137.935 146.15 137.645C146.179 137.356 146.137 137.064 146.026 136.795L130.557 97.9687H34.4443Z" fill="#F8F8F8"/>
<path fill-rule="evenodd" clip-rule="evenodd" d="M130.588 95.2941H33.7499L16.7646 142.941H151.765L130.588 95.2941ZM69.4854 121.765C66.4397 121.765 63.9707 124.234 63.9707 127.279C63.9707 130.325 66.4397 132.794 69.4854 132.794H95.0736C98.1193 132.794 100.588 130.325 100.588 127.279C100.588 124.234 98.1193 121.765 95.0736 121.765H69.4854Z" fill="#F8F8F8"/>
</svg>
