<svg width="306" height="43" viewBox="0 0 306 43" fill="none" xmlns="http://www.w3.org/2000/svg">
<rect width="306" height="43" rx="5" fill="#63AC06"/>
<path d="M129.146 28.216C128.834 28.216 128.576 28.198 128.372 28.162C128.168 28.126 127.982 28.072 127.814 28L128.21 26.182C128.306 26.218 128.414 26.248 128.534 26.272C128.654 26.296 128.816 26.308 129.02 26.308C129.344 26.308 129.614 26.254 129.83 26.146C130.046 26.026 130.22 25.834 130.352 25.57L130.568 25.084L126.554 16.228H128.768L130.55 20.548L131.486 23.122H131.558L132.44 20.548L134.06 16.228H136.166L132.422 25.588C132.098 26.416 131.678 27.064 131.162 27.532C130.646 27.988 129.974 28.216 129.146 28.216ZM136.902 28V19.162H140.484C140.976 19.162 141.426 19.204 141.834 19.288C142.254 19.36 142.614 19.486 142.914 19.666C143.226 19.846 143.466 20.086 143.634 20.386C143.814 20.674 143.904 21.028 143.904 21.448C143.904 21.88 143.778 22.264 143.526 22.6C143.286 22.924 142.92 23.158 142.428 23.302V23.374C142.956 23.506 143.394 23.734 143.742 24.058C144.09 24.382 144.264 24.85 144.264 25.462C144.264 25.906 144.168 26.29 143.976 26.614C143.796 26.926 143.544 27.19 143.22 27.406C142.896 27.61 142.512 27.76 142.068 27.856C141.636 27.952 141.168 28 140.664 28H136.902ZM138.936 22.744H140.286C140.862 22.744 141.276 22.648 141.528 22.456C141.78 22.264 141.906 22 141.906 21.664C141.906 21.316 141.786 21.046 141.546 20.854C141.306 20.662 140.904 20.566 140.34 20.566H138.936V22.744ZM138.936 26.596H140.52C141.12 26.596 141.552 26.482 141.816 26.254C142.092 26.026 142.23 25.72 142.23 25.336C142.23 24.976 142.086 24.688 141.798 24.472C141.51 24.256 141.06 24.148 140.448 24.148H138.936V26.596ZM146.218 28V19.162H148.288V28H146.218ZM147.262 17.614C146.89 17.614 146.584 17.506 146.344 17.29C146.104 17.074 145.984 16.792 145.984 16.444C145.984 16.096 146.104 15.814 146.344 15.598C146.584 15.37 146.89 15.256 147.262 15.256C147.634 15.256 147.94 15.37 148.18 15.598C148.42 15.814 148.54 16.096 148.54 16.444C148.54 16.792 148.42 17.074 148.18 17.29C147.94 17.506 147.634 17.614 147.262 17.614ZM150.929 28V19.162H152.945V22.204C152.945 22.66 152.921 23.17 152.873 23.734C152.837 24.286 152.801 24.844 152.765 25.408H152.819C152.975 25.132 153.161 24.82 153.377 24.472C153.593 24.112 153.773 23.8 153.917 23.536L156.725 19.162H158.633V28H156.617V24.958C156.617 24.502 156.635 23.998 156.671 23.446C156.719 22.882 156.767 22.318 156.815 21.754H156.743C156.587 22.03 156.401 22.348 156.185 22.708C155.981 23.056 155.801 23.362 155.645 23.626L152.837 28H150.929ZM154.853 17.686C154.337 17.686 153.893 17.614 153.521 17.47C153.161 17.314 152.861 17.11 152.621 16.858C152.393 16.606 152.219 16.306 152.099 15.958C151.979 15.61 151.913 15.238 151.901 14.842H153.539C153.563 15.346 153.665 15.754 153.845 16.066C154.025 16.378 154.361 16.534 154.853 16.534C155.345 16.534 155.681 16.378 155.861 16.066C156.041 15.754 156.143 15.346 156.167 14.842H157.805C157.793 15.238 157.727 15.61 157.607 15.958C157.487 16.306 157.307 16.606 157.067 16.858C156.839 17.11 156.539 17.314 156.167 17.47C155.807 17.614 155.369 17.686 154.853 17.686ZM163.191 28V20.8H160.419V19.162H168.051V20.8H165.279V28H163.191ZM169.826 28V19.162H171.842V22.204C171.842 22.66 171.818 23.17 171.77 23.734C171.734 24.286 171.698 24.844 171.662 25.408H171.716C171.872 25.132 172.058 24.82 172.274 24.472C172.49 24.112 172.67 23.8 172.814 23.536L175.622 19.162H177.53V28H175.514V24.958C175.514 24.502 175.532 23.998 175.568 23.446C175.616 22.882 175.664 22.318 175.712 21.754H175.64C175.484 22.03 175.298 22.348 175.082 22.708C174.878 23.056 174.698 23.362 174.542 23.626L171.734 28H169.826Z" fill="#F8F8F8"/>
</svg>
