<svg width="369" height="369" viewBox="0 0 369 369" fill="none" xmlns="http://www.w3.org/2000/svg">
<path d="M224.859 80.7188C223.33 80.7189 221.864 81.3264 220.783 82.4076C219.701 83.4889 219.094 84.9553 219.094 86.4844V282.516C219.094 284.045 219.701 285.511 220.783 286.592C221.864 287.674 223.33 288.281 224.859 288.281H340.172C341.701 288.281 343.167 287.674 344.249 286.592C345.33 285.511 345.937 284.045 345.938 282.516V86.4844C345.937 84.9553 345.33 83.4889 344.249 82.4076C343.167 81.3264 341.701 80.7189 340.172 80.7188H224.859ZM230.625 92.25H334.406V276.75H230.625V92.25ZM247.922 103.781C246.393 103.781 244.926 104.389 243.845 105.47C242.764 106.551 242.156 108.018 242.156 109.547V144.141C242.156 145.67 242.764 147.136 243.845 148.217C244.926 149.299 246.393 149.906 247.922 149.906H317.109C318.639 149.906 320.105 149.299 321.186 148.217C322.267 147.136 322.875 145.67 322.875 144.141V109.547C322.875 108.018 322.267 106.551 321.186 105.47C320.105 104.389 318.639 103.781 317.109 103.781H247.922ZM253.688 115.312H311.344V138.375H253.688V115.312ZM40.3369 138.375C38.8078 138.375 37.3414 138.983 36.2602 140.064C35.1789 141.145 34.5714 142.612 34.5713 144.141V247.922C34.5714 249.451 35.1789 250.917 36.2602 251.999C37.3414 253.08 38.8078 253.687 40.3369 253.688H92.2275V276.75H81.2819V288.281H150.469V276.75H138.353V253.688H190.243C191.772 253.687 193.239 253.08 194.32 251.999C195.401 250.917 196.009 249.451 196.009 247.922V144.141C196.009 142.612 195.401 141.145 194.32 140.064C193.239 138.983 191.772 138.375 190.243 138.375H40.3369ZM46.1025 149.906H184.478V242.156H46.1025V149.906ZM247.922 161.438C246.393 161.438 244.926 162.045 243.845 163.126C242.764 164.208 242.156 165.674 242.156 167.203V190.266C242.156 191.795 242.764 193.261 243.845 194.342C244.926 195.424 246.393 196.031 247.922 196.031H317.109C318.639 196.031 320.105 195.424 321.186 194.342C322.267 193.261 322.875 191.795 322.875 190.266V167.203C322.875 165.674 322.267 164.208 321.186 163.126C320.105 162.045 318.639 161.438 317.109 161.438H247.922ZM253.688 172.969H311.344V184.5H253.688V172.969ZM276.728 219.094V238.192C273.37 240.223 270.984 243.766 270.984 247.922C270.984 254.223 276.216 259.453 282.516 259.453C288.815 259.453 294.047 254.223 294.047 247.922C294.047 243.749 291.64 240.195 288.259 238.17V219.094H276.728ZM103.759 253.688H126.821V276.75H103.759V253.688Z" fill="#F8F8F8"/>
<rect x="226.375" y="89.5551" width="114.431" height="190.719" fill="#F8F8F8"/>
<path d="M247.922 103.781C246.393 103.781 244.926 104.389 243.845 105.47C242.764 106.551 242.156 108.018 242.156 109.547V144.141C242.156 145.67 242.764 147.136 243.845 148.217C244.926 149.299 246.393 149.906 247.922 149.906H317.109C318.638 149.906 320.105 149.299 321.186 148.217C322.267 147.136 322.875 145.67 322.875 144.141V109.547C322.875 108.018 322.267 106.551 321.186 105.47C320.105 104.389 318.638 103.781 317.109 103.781H247.922ZM253.688 115.312H311.344V138.375H253.688V115.312ZM247.922 161.438C246.393 161.438 244.926 162.045 243.845 163.126C242.764 164.208 242.156 165.674 242.156 167.203V190.266C242.156 191.795 242.764 193.261 243.845 194.342C244.926 195.424 246.393 196.031 247.922 196.031H317.109C318.638 196.031 320.105 195.424 321.186 194.342C322.267 193.261 322.875 191.795 322.875 190.266V167.203C322.875 165.674 322.267 164.208 321.186 163.126C320.105 162.045 318.638 161.438 317.109 161.438H247.922ZM253.688 172.969H311.344V184.5H253.688V172.969ZM276.727 219.094V238.192C273.37 240.223 270.984 243.766 270.984 247.922C270.984 254.223 276.216 259.453 282.516 259.453C288.815 259.453 294.047 254.223 294.047 247.922C294.047 243.749 291.64 240.195 288.259 238.17V219.094H276.727Z" fill="#282A33"/>
<rect x="99.5056" y="251.252" width="32.3393" height="29.8516" fill="#F8F8F8"/>
</svg>
