<svg width="136" height="43" viewBox="0 0 136 43" fill="none" xmlns="http://www.w3.org/2000/svg">
<rect width="136" height="43" rx="5" fill="#63AC06"/>
<path d="M25.494 28V16.228H29.202C29.85 16.228 30.45 16.288 31.002 16.408C31.566 16.528 32.052 16.732 32.46 17.02C32.868 17.308 33.186 17.686 33.414 18.154C33.642 18.61 33.756 19.18 33.756 19.864C33.756 20.512 33.642 21.076 33.414 21.556C33.186 22.036 32.868 22.438 32.46 22.762C32.064 23.074 31.59 23.308 31.038 23.464C30.498 23.608 29.91 23.68 29.274 23.68H27.582V28H25.494ZM27.582 22.006H29.112C30.84 22.006 31.704 21.292 31.704 19.864C31.704 19.12 31.476 18.61 31.02 18.334C30.576 18.046 29.916 17.902 29.04 17.902H27.582V22.006ZM39.1663 28.216C38.5543 28.216 37.9843 28.114 37.4563 27.91C36.9283 27.694 36.4663 27.388 36.0703 26.992C35.6743 26.596 35.3623 26.116 35.1343 25.552C34.9183 24.976 34.8103 24.322 34.8103 23.59C34.8103 22.87 34.9243 22.222 35.1523 21.646C35.3803 21.07 35.6803 20.584 36.0523 20.188C36.4363 19.792 36.8743 19.486 37.3663 19.27C37.8583 19.054 38.3623 18.946 38.8783 18.946C39.4783 18.946 40.0063 19.048 40.4623 19.252C40.9183 19.456 41.2963 19.744 41.5963 20.116C41.9083 20.488 42.1423 20.932 42.2983 21.448C42.4543 21.964 42.5323 22.528 42.5323 23.14C42.5323 23.344 42.5203 23.536 42.4963 23.716C42.4843 23.896 42.4663 24.04 42.4423 24.148H36.8263C36.9223 24.94 37.1983 25.552 37.6543 25.984C38.1223 26.404 38.7163 26.614 39.4363 26.614C39.8203 26.614 40.1743 26.56 40.4983 26.452C40.8343 26.332 41.1643 26.17 41.4883 25.966L42.1903 27.262C41.7703 27.538 41.3023 27.766 40.7863 27.946C40.2703 28.126 39.7303 28.216 39.1663 28.216ZM36.8083 22.744H40.7323C40.7323 22.06 40.5823 21.526 40.2823 21.142C39.9943 20.746 39.5443 20.548 38.9323 20.548C38.4043 20.548 37.9423 20.734 37.5463 21.106C37.1503 21.478 36.9043 22.024 36.8083 22.744ZM48.1993 28.216C47.5873 28.216 47.0173 28.12 46.4893 27.928C45.9733 27.736 45.5233 27.448 45.1393 27.064C44.7673 26.668 44.4733 26.182 44.2573 25.606C44.0413 25.03 43.9333 24.358 43.9333 23.59C43.9333 22.81 44.0473 22.132 44.2753 21.556C44.5153 20.968 44.8333 20.482 45.2293 20.098C45.6373 19.714 46.1053 19.426 46.6333 19.234C47.1733 19.042 47.7433 18.946 48.3433 18.946C48.9073 18.946 49.3993 19.042 49.8193 19.234C50.2513 19.426 50.6293 19.66 50.9533 19.936L50.0353 21.214C49.7833 21.01 49.5193 20.848 49.2433 20.728C48.9793 20.608 48.6793 20.548 48.3433 20.548C47.7193 20.548 47.1973 20.728 46.7773 21.088C46.3573 21.436 46.0873 21.988 45.9673 22.744H49.4953V24.148H45.9133C46.0093 24.988 46.2733 25.612 46.7053 26.02C47.1373 26.416 47.7073 26.614 48.4153 26.614C48.7753 26.614 49.1173 26.536 49.4413 26.38C49.7773 26.224 50.0653 26.044 50.3053 25.84L51.0793 27.136C50.6593 27.496 50.1973 27.766 49.6933 27.946C49.2013 28.126 48.7033 28.216 48.1993 28.216ZM56.0743 28.216C55.4743 28.216 54.9103 28.114 54.3823 27.91C53.8663 27.706 53.4163 27.406 53.0323 27.01C52.6483 26.614 52.3483 26.128 52.1323 25.552C51.9163 24.976 51.8083 24.322 51.8083 23.59C51.8083 22.858 51.9283 22.204 52.1683 21.628C52.4083 21.052 52.7323 20.566 53.1403 20.17C53.5483 19.774 54.0163 19.474 54.5443 19.27C55.0843 19.054 55.6483 18.946 56.2363 18.946C56.8123 18.946 57.3043 19.042 57.7123 19.234C58.1323 19.426 58.5043 19.66 58.8283 19.936L57.8203 21.286C57.5803 21.082 57.3403 20.926 57.1003 20.818C56.8723 20.698 56.6203 20.638 56.3443 20.638C55.6243 20.638 55.0423 20.908 54.5983 21.448C54.1543 21.976 53.9323 22.69 53.9323 23.59C53.9323 24.478 54.1483 25.192 54.5803 25.732C55.0243 26.26 55.5943 26.524 56.2903 26.524C56.6383 26.524 56.9623 26.452 57.2623 26.308C57.5743 26.152 57.8563 25.972 58.1083 25.768L58.9543 27.136C58.5343 27.496 58.0723 27.766 57.5683 27.946C57.0763 28.126 56.5783 28.216 56.0743 28.216ZM62.449 28V20.8H59.677V19.162H67.309V20.8H64.537V28H62.449ZM69.0835 31.492V19.162H70.7935L70.9375 20.098H71.0095C71.3815 19.786 71.7955 19.516 72.2515 19.288C72.7075 19.06 73.1815 18.946 73.6735 18.946C74.2255 18.946 74.7115 19.054 75.1315 19.27C75.5635 19.474 75.9295 19.774 76.2295 20.17C76.5295 20.566 76.7575 21.04 76.9135 21.592C77.0695 22.144 77.1475 22.762 77.1475 23.446C77.1475 24.202 77.0395 24.88 76.8235 25.48C76.6195 26.068 76.3435 26.566 75.9955 26.974C75.6475 27.37 75.2455 27.676 74.7895 27.892C74.3335 28.108 73.8595 28.216 73.3675 28.216C72.9835 28.216 72.5995 28.132 72.2155 27.964C71.8315 27.796 71.4595 27.556 71.0995 27.244L71.1535 28.72V31.492H69.0835ZM72.9355 26.506C73.5235 26.506 74.0155 26.254 74.4115 25.75C74.8075 25.234 75.0055 24.472 75.0055 23.464C75.0055 22.576 74.8555 21.886 74.5555 21.394C74.2555 20.902 73.7695 20.656 73.0975 20.656C72.4735 20.656 71.8255 20.986 71.1535 21.646V25.768C71.4775 26.044 71.7895 26.236 72.0895 26.344C72.3895 26.452 72.6715 26.506 72.9355 26.506ZM81.1748 28.216C80.3948 28.216 79.7648 27.982 79.2848 27.514C78.8048 27.034 78.5648 26.404 78.5648 25.624C78.5648 25.156 78.6608 24.742 78.8528 24.382C79.0568 24.01 79.3688 23.692 79.7888 23.428C80.2208 23.164 80.7608 22.942 81.4088 22.762C82.0688 22.582 82.8548 22.444 83.7668 22.348C83.7548 22.12 83.7188 21.904 83.6588 21.7C83.6108 21.484 83.5208 21.298 83.3888 21.142C83.2688 20.974 83.1068 20.848 82.9028 20.764C82.6988 20.668 82.4468 20.62 82.1468 20.62C81.7148 20.62 81.2888 20.704 80.8688 20.872C80.4608 21.04 80.0588 21.244 79.6628 21.484L78.9067 20.098C79.3988 19.786 79.9508 19.516 80.5628 19.288C81.1748 19.06 81.8348 18.946 82.5428 18.946C83.6468 18.946 84.4688 19.276 85.0088 19.936C85.5608 20.584 85.8368 21.526 85.8368 22.762V28H84.1268L83.9828 27.028H83.9108C83.5148 27.364 83.0888 27.646 82.6328 27.874C82.1888 28.102 81.7028 28.216 81.1748 28.216ZM81.8408 26.596C82.2008 26.596 82.5248 26.512 82.8128 26.344C83.1128 26.176 83.4308 25.936 83.7668 25.624V23.644C83.1668 23.716 82.6628 23.812 82.2548 23.932C81.8468 24.052 81.5168 24.19 81.2648 24.346C81.0128 24.49 80.8328 24.658 80.7248 24.85C80.6168 25.042 80.5628 25.246 80.5628 25.462C80.5628 25.858 80.6828 26.146 80.9228 26.326C81.1628 26.506 81.4688 26.596 81.8408 26.596ZM88.314 28V19.162H90.384V26.344H93.66V19.162H95.73V26.344H97.08V27.694L96.864 31.096H95.082V28H88.314ZM98.6675 28V19.162H100.738V28H98.6675ZM99.7115 17.614C99.3395 17.614 99.0335 17.506 98.7935 17.29C98.5535 17.074 98.4335 16.792 98.4335 16.444C98.4335 16.096 98.5535 15.814 98.7935 15.598C99.0335 15.37 99.3395 15.256 99.7115 15.256C100.084 15.256 100.39 15.37 100.63 15.598C100.87 15.814 100.99 16.096 100.99 16.444C100.99 16.792 100.87 17.074 100.63 17.29C100.39 17.506 100.084 17.614 99.7115 17.614ZM108.202 28V24.832H106.906H106.87L104.8 28H102.478L104.98 24.472C104.476 24.256 104.056 23.944 103.72 23.536C103.396 23.128 103.234 22.594 103.234 21.934C103.234 21.418 103.324 20.986 103.504 20.638C103.696 20.278 103.948 19.99 104.26 19.774C104.584 19.558 104.962 19.402 105.394 19.306C105.838 19.21 106.312 19.162 106.816 19.162H110.272V28H108.202ZM107.104 23.374H108.202V20.71H107.104C106.528 20.71 106.078 20.812 105.754 21.016C105.442 21.22 105.286 21.544 105.286 21.988C105.286 22.42 105.442 22.762 105.754 23.014C106.078 23.254 106.528 23.374 107.104 23.374Z" fill="#F8F8F8"/>
</svg>
