<?xml version="1.0" standalone="no"?>
<!DOCTYPE svg PUBLIC "-//W3C//DTD SVG 20010904//EN"
 "http://www.w3.org/TR/2001/REC-SVG-20010904/DTD/svg10.dtd">
<svg version="1.0" xmlns="http://www.w3.org/2000/svg"
 width="500.000000pt" height="500.000000pt" viewBox="0 0 500.000000 500.000000"
 preserveAspectRatio="xMidYMid meet">
<metadata>
Created by potrace 1.16, written by Peter Selinger 2001-2019
</metadata>
<g transform="translate(0.000000,500.000000) scale(0.100000,-0.100000)"
fill="#000000" stroke="none">
<path d="M1046 4909 c-124 -20 -242 -114 -289 -229 -35 -87 -38 -434 -28
-2860 l6 -1465 23 -57 c47 -118 155 -203 286 -227 83 -15 2808 -15 2892 0 158
29 273 145 304 307 14 76 15 4150 1 4221 -24 120 -89 215 -179 264 -108 59
-49 57 -1572 56 -767 -1 -1417 -5 -1444 -10z m3132 -2424 c0 -1127 -4 -2061
-8 -2075 -4 -14 -8 922 -8 2080 0 1158 4 2092 8 2075 4 -16 8 -952 8 -2080z
m-1300 2085 c207 0 331 -4 323 -9 -11 -7 -4 -11 25 -14 27 -2 18 -4 -31 -6
-52 -2 -64 -5 -45 -11 l25 -8 -24 -1 c-13 -1 -39 -12 -57 -26 -42 -32 -52 -31
-57 3 -3 20 -4 17 -5 -13 -1 -22 2 -45 6 -51 9 -12 60 -32 87 -32 61 -2 198
-23 215 -34 14 -9 20 -24 20 -49 0 -33 -3 -37 -32 -44 -18 -5 -38 -9 -44 -9
-6 -1 -18 -6 -25 -12 -8 -6 -41 -11 -74 -13 -32 -1 -62 -7 -66 -13 -9 -14 -40
-2 -37 14 2 8 -6 13 -19 12 -13 0 -77 -1 -143 -2 -162 -3 -160 -22 3 -23 l122
-2 -120 -8 c-79 -6 -121 -6 -123 1 -5 13 -79 13 -87 0 -5 -9 -242 -4 -273 6
-8 2 -10 12 -6 29 5 19 2 25 -11 25 -13 0 -16 -6 -11 -24 3 -14 2 -28 -4 -31
-9 -6 -14 14 -11 43 1 8 -12 12 -39 12 -24 0 -40 -5 -40 -12 0 -9 -3 -9 -12 0
-7 7 -30 12 -53 12 -29 0 -46 6 -58 21 -15 17 -27 20 -72 17 l-53 -3 -4 75
c-5 77 -1 101 12 80 5 -8 18 -10 39 -5 25 5 30 10 21 20 -16 19 -1 23 59 15
53 -7 54 -6 65 22 13 34 28 36 48 6 l15 -22 -1 24 c-1 23 3 25 51 30 28 3 50
3 48 0 -2 -3 2 -13 9 -22 16 -22 68 -29 91 -12 16 12 16 14 3 14 -11 0 -16 8
-15 20 1 13 6 19 15 15 7 -3 165 -5 350 -5z m-978 -2077 c0 -1142 -3 -2073 -7
-2070 -7 7 -11 3966 -4 4080 2 37 5 67 7 67 2 0 4 -935 4 -2077z m1842 1959
c7 -7 31 -12 55 -12 24 0 43 -4 43 -8 0 -4 14 -16 30 -25 32 -19 39 -37 16
-37 -8 0 -27 -11 -42 -25 -32 -30 -44 -31 -51 -5 -7 26 -54 34 -162 27 -63 -4
-79 -2 -58 5 35 13 34 25 -3 33 -16 4 -30 13 -30 21 0 8 -6 14 -12 15 -7 0 1
7 17 15 36 17 179 14 197 -4z m-2189 -109 c28 -26 23 -87 -9 -112 -32 -25 -52
-26 -82 -5 -33 23 -46 61 -32 95 20 48 81 59 123 22z m2510 -977 c-18 -32
-240 -175 -388 -251 -362 -185 -712 -230 -1041 -135 -56 16 -127 41 -157 55
-31 14 -58 25 -60 25 -12 0 -177 98 -228 134 -162 118 -188 141 -195 173 -3
18 -2 68 2 113 l9 80 45 -31 c25 -16 92 -54 150 -83 255 -129 460 -176 770
-176 441 0 710 80 1030 304 l65 46 3 -121 c1 -66 -1 -126 -5 -133z m-17 -61
c-9 -13 -16 -31 -16 -40 0 -8 -4 -15 -10 -15 -5 0 -10 -7 -10 -16 0 -8 -4 -13
-9 -9 -6 3 -9 -4 -8 -15 1 -11 5 -20 9 -20 4 0 4 -33 1 -72 -3 -54 -10 -79
-25 -94 -11 -12 -15 -23 -9 -25 14 -5 23 -79 9 -79 -6 0 -6 -6 2 -15 9 -11 10
-25 0 -65 -7 -27 -16 -50 -20 -50 -4 0 -11 -16 -14 -35 -4 -19 -12 -35 -17
-35 -6 0 -9 -6 -6 -12 2 -7 -9 -29 -24 -49 -16 -20 -29 -42 -29 -48 0 -26 -59
-68 -125 -89 -188 -58 -862 -81 -1095 -37 -129 25 -320 74 -369 96 -47 20 -72
46 -64 65 2 6 -3 14 -12 18 -12 4 -15 16 -12 52 3 26 1 63 -4 83 -5 22 -4 37
1 39 17 6 11 31 -10 44 -14 9 -20 24 -20 50 0 21 -5 38 -10 38 -16 0 -51 90
-45 111 4 12 1 21 -10 25 -11 5 -13 10 -5 19 8 9 6 17 -5 28 -11 12 -12 17 -2
21 9 5 9 7 0 12 -7 3 -13 12 -13 19 0 7 -5 15 -12 17 -11 4 -21 38 -11 38 4 0
24 -14 47 -30 23 -17 62 -46 87 -64 121 -90 336 -180 529 -222 101 -22 346
-30 449 -15 190 28 423 106 599 202 73 39 219 135 272 178 33 27 36 26 16 -4z
m-2017 -475 c33 -105 112 -252 176 -330 52 -64 140 -138 224 -188 24 -14 30
-23 20 -26 -8 -2 -32 -10 -54 -17 -78 -23 -123 -49 -166 -95 -24 -26 -54 -58
-67 -70 -22 -21 -22 -23 -5 -31 10 -5 207 -6 438 -2 452 7 1324 -3 1343 -15 7
-4 12 -15 12 -25 0 -10 11 -26 24 -34 48 -32 55 -66 50 -262 -2 -99 -5 -212
-5 -251 0 -52 -5 -79 -19 -102 -23 -37 -49 -41 -125 -17 -27 8 -50 13 -52 12
-1 -2 5 -19 15 -38 16 -32 20 -34 74 -37 32 -2 66 2 76 7 33 18 53 77 66 204
13 119 14 113 15 -280 l1 -403 -127 128 c-144 144 -268 233 -429 308 -54 26
-101 50 -104 54 -3 3 -14 12 -25 19 -18 11 -17 12 10 6 17 -3 37 -8 46 -11 11
-3 19 3 22 18 8 29 3 32 -22 16 -17 -10 -25 -10 -41 0 -23 14 -40 8 -40 -15 0
-10 -5 -13 -17 -8 -103 40 -416 57 -578 31 -55 -9 -111 -24 -125 -34 -14 -10
-57 -30 -97 -46 -181 -70 -420 -258 -517 -409 -10 -15 -22 -27 -27 -27 -5 0
-9 163 -9 373 0 244 4 367 10 357 5 -8 10 -35 10 -60 1 -25 9 -67 18 -95 22
-63 47 -77 127 -69 48 5 64 11 82 32 25 30 30 52 11 52 -7 0 -37 -9 -66 -20
-66 -25 -77 -25 -103 1 -20 20 -21 29 -15 108 5 68 3 92 -10 116 -11 21 -15
61 -16 146 0 108 2 120 26 161 26 45 36 118 16 118 -5 0 -10 7 -10 15 0 18
-17 20 -23 3 -2 -7 -8 0 -12 15 -4 16 -1 84 8 155 9 69 14 128 13 130 -9 8
-26 -103 -37 -235 -7 -78 -16 -140 -21 -137 -10 7 -11 874 0 874 4 0 18 -32
31 -70z m2039 -472 c-1 -429 -2 -446 -13 -313 -7 77 -13 119 -14 94 -1 -52 -8
-64 -28 -47 -10 8 -17 8 -25 0 -27 -27 -60 -12 -127 57 -67 70 -111 98 -188
121 -24 7 -43 16 -43 19 1 3 26 22 57 41 53 33 233 203 233 221 0 4 18 34 39
67 22 33 55 89 73 126 18 36 34 66 35 66 2 0 2 -204 1 -452z m-1431 -142 c38
-8 147 -22 242 -31 195 -17 386 -9 558 24 51 10 90 15 88 12 -2 -4 13 -7 33
-7 20 0 59 -4 85 -8 37 -6 47 -11 43 -22 -3 -9 -1 -12 4 -9 12 7 13 -5 2 -22
-8 -13 -82 -18 -197 -15 -142 4 -1084 -6 -1094 -12 -5 -4 -21 -1 -34 5 -18 8
-30 8 -45 0 -16 -8 -21 -7 -26 5 -11 28 -6 34 18 28 18 -4 28 0 38 15 7 12 20
21 30 21 9 0 20 5 23 10 6 10 29 9 140 -7 36 -5 38 -4 26 11 -16 19 -18 19 66
2z"/>
<path d="M2835 4550 c38 -5 18 -8 -80 -10 l-130 -2 125 -16 c69 -8 127 -19
128 -23 2 -5 9 -9 16 -9 6 0 26 -14 45 -30 18 -17 37 -28 42 -25 5 4 9 24 9
45 0 28 -5 40 -17 44 -10 3 19 4 65 2 45 -1 82 1 82 6 0 4 -37 9 -82 10 l-83
1 65 7 c47 5 23 7 -85 7 -95 0 -132 -3 -100 -7z"/>
</g>
</svg>
