<svg width="101" height="101" viewBox="0 0 101 101" fill="none" xmlns="http://www.w3.org/2000/svg">
<path d="M63.125 7.89062V11.0469C63.125 11.4654 62.9587 11.8668 62.6628 12.1628C62.3668 12.4587 61.9654 12.625 61.5469 12.625H39.4531C39.0346 12.625 38.6332 12.4587 38.3372 12.1628C38.0413 11.8668 37.875 11.4654 37.875 11.0469V7.89062H63.125Z" fill="#F8F8F8"/>
<path d="M69.4375 7.89062H66.2812V11.0469C66.2812 12.3025 65.7824 13.5067 64.8946 14.3946C64.0067 15.2825 62.8025 15.7812 61.5469 15.7812H39.4531C38.1975 15.7812 36.9933 15.2825 36.1054 14.3946C35.2175 13.5067 34.7188 12.3025 34.7188 11.0469V7.89062H31.5625C30.3069 7.89062 29.1027 8.38942 28.2148 9.27729C27.3269 10.1652 26.8281 11.3694 26.8281 12.625V88.375C26.8281 89.6306 27.3269 90.8348 28.2148 91.7227C29.1027 92.6106 30.3069 93.1094 31.5625 93.1094H69.4375C70.6931 93.1094 71.8973 92.6106 72.7852 91.7227C73.6731 90.8348 74.1719 89.6306 74.1719 88.375V12.625C74.1719 11.3694 73.6731 10.1652 72.7852 9.27729C71.8973 8.38942 70.6931 7.89062 69.4375 7.89062ZM58.3906 86.7969H42.6094C42.1908 86.7969 41.7894 86.6306 41.4935 86.3347C41.1975 86.0387 41.0312 85.6373 41.0312 85.2188C41.0312 84.8002 41.1975 84.3988 41.4935 84.1028C41.7894 83.8069 42.1908 83.6406 42.6094 83.6406H58.3906C58.8092 83.6406 59.2106 83.8069 59.5065 84.1028C59.8025 84.3988 59.9688 84.8002 59.9688 85.2188C59.9688 85.6373 59.8025 86.0387 59.5065 86.3347C59.2106 86.6306 58.8092 86.7969 58.3906 86.7969ZM45.5131 56.1812L45.1817 56.4653C44.8553 56.729 44.4374 56.8522 44.0201 56.8078C43.6028 56.7634 43.2202 56.5551 42.9566 56.2286C42.6929 55.9021 42.5697 55.4843 42.6141 55.067C42.6585 54.6497 42.8668 54.2671 43.1933 54.0034L43.5247 53.7352C45.4952 52.1306 47.9588 51.2544 50.5 51.2544C53.0412 51.2544 55.5048 52.1306 57.4753 53.7352L57.8067 53.9877C58.0685 54.1907 58.2598 54.4711 58.3533 54.7889C58.4469 55.1068 58.4381 55.446 58.3281 55.7585C58.2181 56.0711 58.0125 56.3411 57.7405 56.5302C57.4684 56.7194 57.1438 56.8182 56.8125 56.8125C56.4511 56.814 56.1002 56.6915 55.8183 56.4653L55.4869 56.197C54.0805 55.0464 52.32 54.4164 50.5028 54.4135C48.6856 54.4106 46.9232 55.035 45.5131 56.1812ZM53.6562 61.5469C53.6562 62.1711 53.4711 62.7814 53.1243 63.3004C52.7775 63.8194 52.2846 64.224 51.7078 64.4629C51.1311 64.7018 50.4965 64.7643 49.8842 64.6425C49.272 64.5207 48.7096 64.2201 48.2682 63.7787C47.8268 63.3373 47.5262 62.7749 47.4044 62.1626C47.2826 61.5504 47.3451 60.9158 47.584 60.339C47.8229 59.7623 48.2274 59.2694 48.7465 58.9225C49.2655 58.5757 49.8758 58.3906 50.5 58.3906C51.3371 58.3906 52.1399 58.7232 52.7318 59.3151C53.3237 59.907 53.6562 60.7098 53.6562 61.5469ZM61.2786 49.7898C61.1356 50.0069 60.9413 50.1853 60.7128 50.3092C60.4842 50.4331 60.2287 50.4987 59.9688 50.5C59.6585 50.5035 59.3549 50.4097 59.1008 50.2317C56.5534 48.5347 53.5609 47.6292 50.5 47.6292C47.4391 47.6292 44.4466 48.5347 41.8992 50.2317C41.7282 50.3695 41.5303 50.47 41.3183 50.5269C41.1062 50.5838 40.8846 50.5959 40.6676 50.5622C40.4506 50.5286 40.243 50.4501 40.0581 50.3316C39.8732 50.2132 39.715 50.0575 39.5937 49.8744C39.4724 49.6914 39.3907 49.4851 39.3537 49.2686C39.3167 49.0522 39.3253 48.8304 39.3789 48.6175C39.4325 48.4045 39.5299 48.2051 39.665 48.032C39.8001 47.8589 39.9698 47.7158 40.1633 47.612C43.2199 45.5597 46.8183 44.4637 50.5 44.4637C54.1817 44.4637 57.7801 45.5597 60.8367 47.612C61.1827 47.8434 61.4232 48.2021 61.506 48.61C61.5887 49.0179 61.507 49.4419 61.2786 49.7898ZM64.4348 42.8934C64.3253 43.0699 64.1819 43.2229 64.013 43.3438C63.8442 43.4648 63.6531 43.5511 63.4508 43.5981C63.2485 43.645 63.0389 43.6515 62.834 43.6172C62.6292 43.583 62.4331 43.5086 62.257 43.3984L61.3417 42.8145C58.0748 40.7943 54.3096 39.7241 50.4684 39.7241C46.6273 39.7241 42.8621 40.7943 39.5952 42.8145L38.6798 43.3984C38.5037 43.5083 38.3076 43.5823 38.1028 43.6164C37.8981 43.6505 37.6886 43.6439 37.4863 43.597C37.0779 43.5023 36.7239 43.2492 36.502 42.8934C36.2802 42.5377 36.2088 42.1084 36.3035 41.6999C36.3982 41.2915 36.6513 40.9375 37.007 40.7156L37.9223 40.1475C41.6897 37.8102 46.035 36.5718 50.4684 36.5718C54.9019 36.5718 59.2472 37.8102 63.0145 40.1475L63.9298 40.7156C64.1089 40.8226 64.2649 40.9641 64.3889 41.1318C64.5129 41.2995 64.6025 41.4901 64.6524 41.6926C64.7023 41.8951 64.7115 42.1055 64.6796 42.3116C64.6477 42.5178 64.5752 42.7155 64.4664 42.8934H64.4348Z" fill="#F8F8F8"/>
<rect x="36.2969" y="29.9844" width="29.9844" height="41.0312" fill="#F8F8F8"/>
</svg>
