<svg width="119" height="119" viewBox="0 0 119 119" fill="none" xmlns="http://www.w3.org/2000/svg">
<path d="M104.125 14.875H14.8749C9.42075 14.875 4.95825 19.3375 4.95825 24.7917V84.2917C4.95825 89.7458 9.42075 94.2083 14.8749 94.2083H39.6666V99.1667C39.6666 101.894 41.8978 104.125 44.6249 104.125H74.3749C77.102 104.125 79.3332 101.894 79.3332 99.1667V94.2083H104.125C109.579 94.2083 113.992 89.7458 113.992 84.2917L114.042 24.7917C114.042 19.3375 109.579 14.875 104.125 14.875ZM99.1666 84.2917H19.8333C17.1062 84.2917 14.8749 82.0604 14.8749 79.3333V29.75C14.8749 27.0229 17.1062 24.7917 19.8333 24.7917H99.1666C101.894 24.7917 104.125 27.0229 104.125 29.75V79.3333C104.125 82.0604 101.894 84.2917 99.1666 84.2917Z" fill="#F8F8F8"/>
</svg>
